<svg width="16" height="12" viewBox="0 0 16 12" fill="none" xmlns="http://www.w3.org/2000/svg">
<path d="M8 0.749976L7.99653 0.750024C7.22781 0.760701 6.4696 0.856813 5.72225 1.03831C4.97127 1.22069 4.25757 1.49974 3.58171 1.87521C2.90535 2.25097 2.29553 2.71029 1.75291 3.25291C1.20661 3.79921 0.76084 4.42902 0.415671 5.14093L0.415666 5.14093L0.41491 5.14252C0.199254 5.59539 0.0344486 6.05986 -0.0791094 6.53572C-0.193097 7.01338 -0.25 7.50162 -0.25 8V8.25H0H1H1.25427L1.24996 7.99576C1.24003 7.40979 1.32937 6.86527 1.5158 6.35997C1.70607 5.84424 1.95576 5.37526 2.26448 4.95201C2.57281 4.52931 2.94396 4.15037 3.3791 3.81526C3.81769 3.4775 4.28625 3.19285 4.78503 2.9611C5.28378 2.72935 5.80812 2.55283 6.35845 2.43165C6.90909 2.31041 7.45617 2.25 8 2.25C8.53311 2.25 9.08049 2.31034 9.64248 2.43185C10.2031 2.55307 10.7294 2.72949 11.2219 2.96068C11.7157 3.19245 12.1819 3.47721 12.6209 3.81526C13.0564 4.15066 13.4306 4.53009 13.7445 4.95355C14.0571 5.3754 14.3033 5.84248 14.4827 6.35592C14.6603 6.86379 14.75 7.41121 14.75 8V8.25H15H16H16.25V8C16.25 7.49663 16.1931 7.00578 16.0791 6.52791C15.9655 6.05183 15.8006 5.5896 15.5846 5.14146L15.5843 5.14089C15.234 4.41875 14.7855 3.7859 14.2384 3.24422C13.6962 2.70741 13.0896 2.25113 12.419 1.87562C11.7483 1.49999 11.0347 1.21839 10.279 1.0308C9.52522 0.843697 8.76542 0.75 8 0.749976ZM9.26254 5.00459C8.86614 4.8347 8.44501 4.7502 8.00156 4.75C7.55121 4.74458 7.12534 4.82933 6.72689 5.00579C6.33533 5.1792 5.99172 5.41254 5.69822 5.70604C5.4041 6.00016 5.17291 6.3447 5.00459 6.73746C4.8345 7.13433 4.75 7.55598 4.75 8C4.75 8.44878 4.83433 8.87309 5.00459 9.27036C5.17335 9.66412 5.40781 10.0092 5.70773 10.3035C6.00588 10.596 6.34923 10.8266 6.73626 10.9949C7.12905 11.1657 7.55124 11.25 8 11.25C8.43927 11.25 8.86041 11.1653 9.26137 10.9959C9.66041 10.8273 10.0086 10.5928 10.3035 10.2923C10.596 9.99412 10.8266 9.65077 10.9949 9.26374C11.1655 8.87141 11.2498 8.44974 11.25 8.00156C11.2554 7.56065 11.1703 7.13797 10.9947 6.7359C10.8215 6.33904 10.588 5.99231 10.294 5.69822C9.99984 5.4041 9.6553 5.17291 9.26254 5.00459ZM8.67376 9.61448C8.46804 9.70393 8.24513 9.74971 8.0023 9.75C7.75049 9.74508 7.52194 9.69849 7.31419 9.61268C7.10641 9.52686 6.92392 9.40307 6.76519 9.23979C6.60391 9.07391 6.47764 8.88563 6.38552 8.67376C6.29608 8.46804 6.25029 8.24513 6.25 8.0023C6.25492 7.75049 6.30151 7.52194 6.38732 7.31419C6.47314 7.10641 6.59693 6.92392 6.76021 6.76519C6.92609 6.60391 7.11437 6.47764 7.32624 6.38552C7.53196 6.29608 7.75487 6.25029 7.9977 6.25C8.24951 6.25492 8.47806 6.30151 8.68581 6.38732C8.89359 6.47314 9.07608 6.59693 9.23481 6.76021C9.39609 6.92609 9.52236 7.11437 9.61448 7.32624C9.70393 7.53196 9.74971 7.75487 9.75 7.9977C9.74508 8.24951 9.69849 8.47806 9.61268 8.68581C9.52686 8.89359 9.40307 9.07608 9.23979 9.23481C9.07391 9.39609 8.88563 9.52236 8.67376 9.61448Z" fill="#019EF7" stroke="#019EF7" stroke-width="0.5"/>
</svg>
